<svg width="192" height="192" viewBox="0 0 192 192" fill="none" xmlns="http://www.w3.org/2000/svg">
  <rect width="192" height="192" rx="44" fill="#08111F"/>
  <rect x="22" y="22" width="148" height="148" rx="34" fill="url(#paint0_linear_1_2)" fill-opacity="0.12"/>
  <path d="M46 138V54H82.2C103.9 54 118 65 118 86C118 107 103.9 118 82.2 118H72V138H46ZM72 95H81.6C90 95 94.6 91.2 94.6 86C94.6 80.8 90 77 81.6 77H72V95Z" fill="#34D399"/>
  <path d="M126 54H154L138.5 90L154 138H128L120 107L112 138H86L101.5 90L86 54H114L120 81L126 54Z" fill="#F59E0B"/>
  <defs>
    <linearGradient id="paint0_linear_1_2" x1="44" y1="44" x2="148" y2="152" gradientUnits="userSpaceOnUse">
      <stop stop-color="#34D399"/>
      <stop offset="1" stop-color="#F59E0B"/>
    </linearGradient>
  </defs>
</svg>